<?xml version="1.0" encoding="UTF-8"?>
<!DOCTYPE svg PUBLIC "-//W3C//DTD SVG 1.1//EN" "http://www.w3.org/Graphics/SVG/1.1/DTD/svg11.dtd">
<!-- Creator: CorelDRAW -->
<svg xmlns="http://www.w3.org/2000/svg" xml:space="preserve" width="5.4186mm" height="5.4186mm" version="1.1" style="shape-rendering:geometricPrecision; text-rendering:geometricPrecision; image-rendering:optimizeQuality; fill-rule:evenodd; clip-rule:evenodd"
viewBox="0 0 541.86 541.86"
 xmlns:xlink="http://www.w3.org/1999/xlink"
 xmlns:xodm="http://www.corel.com/coreldraw/odm/2003">
 <defs>
  <style type="text/css">
   <![CDATA[
    .fil1 {fill:black}
    .fil0 {fill:#0040FF}
    .fil2 {fill:white;fill-rule:nonzero}
   ]]>
  </style>
 </defs>
 <g id="Layer_x0020_1">
  <metadata id="CorelCorpID_0Corel-Layer"/>
  <g id="_2696033803120">
   <path class="fil0" d="M270.93 0c149.63,0 270.93,121.3 270.93,270.93 0,149.63 -121.3,270.93 -270.93,270.93 -149.63,0 -270.93,-121.3 -270.93,-270.93 0,-149.63 121.3,-270.93 270.93,-270.93z"/>
   <path id="_1" class="fil1" d="M270.93 0c149.63,0 270.93,121.3 270.93,270.93 0,149.63 -121.3,270.93 -270.93,270.93 -149.63,0 -270.93,-121.3 -270.93,-270.93 0,-149.63 121.3,-270.93 270.93,-270.93zm179.61 91.32c-45.96,-45.96 -109.47,-74.39 -179.61,-74.39 -70.14,0 -133.65,28.43 -179.61,74.39 -45.96,45.96 -74.39,109.47 -74.39,179.61 0,70.14 28.43,133.65 74.39,179.61 45.96,45.96 109.47,74.39 179.61,74.39 70.14,0 133.65,-28.43 179.61,-74.39 45.96,-45.96 74.39,-109.47 74.39,-179.61 0,-70.14 -28.43,-133.65 -74.39,-179.61z"/>
  </g>
  <path class="fil2" d="M50.8 293.27l34.57 0 0 39.68c0,3.95 2.39,5.92 7.16,5.92 4.61,0 6.92,-1.97 6.92,-5.88l0 -20.46c0,-6.25 -4.2,-13.62 -12.55,-22.06 -16.18,-15.64 -26.22,-26.17 -30.17,-31.52 -3.95,-5.39 -5.93,-11.28 -5.93,-17.74l0 -19.39c0,-22.39 14.69,-33.58 44.04,-33.58 26.3,0 39.43,10.21 39.43,30.62l0 29.92 -34.57 0 0 -31.69c0,-3.41 -1.94,-5.14 -5.81,-5.14 -4.53,0 -6.79,3.25 -6.79,9.75l0.74 11.24c0,6.42 4.28,13.87 12.84,22.39 15.89,15.18 26.01,25.76 30.34,31.77 4.32,6.05 6.46,12.84 6.46,20.49l0 22.02c0,22.97 -14.7,34.45 -44.12,34.45 -28.36,0 -42.56,-10.45 -42.56,-31.36l0 -39.43z"/>
  <polygon class="fil2" points="190.32,363.41 152.29,363.41 152.29,190.55 190.32,190.55 "/>
  <polygon class="fil2" points="389.84,363.41 315.51,363.41 315.51,190.55 389.34,190.55 389.34,212.78 353.54,212.78 353.54,259.45 385.84,259.45 385.84,280.44 353.54,280.44 353.54,341.19 389.84,341.19 "/>
  <path class="fil2" d="M408.52 363.41l0 -172.86 44.78 0c10.7,0 20,2.43 27.86,7.29 7.9,4.85 11.86,12.63 11.86,23.29l0 24c0,12.14 -7.41,20.66 -22.19,25.64 15.6,3.87 23.38,12.18 23.38,24.98l0 33.54c0,11.4 -3.7,19.96 -11.15,25.6 -7.45,5.68 -16.34,8.52 -26.63,8.52l-47.91 0zm48.65 -112.15l0 -29.43c0,-6.05 -3.54,-9.05 -10.62,-9.05l0 47.66c7.08,0 10.62,-3.05 10.62,-9.18zm0 80.75l0 -43.75c0,-6.05 -3.54,-9.06 -10.62,-9.06l0 61.99c7.08,0 10.62,-3.05 10.62,-9.18z"/>
  <path class="fil2" d="M296.24 251.64l-35.28 0 0 -33.57c0,-2.76 -1.8,-4.13 -5.42,-4.13 -3.78,0 -5.66,1.37 -5.66,4.13l0 117.74c0,2.76 1.88,4.14 5.66,4.14 3.62,0 5.42,-1.38 5.42,-4.18l0 -42.04 35.28 0 0 43.3c0,8.07 -4.12,14.56 -12.35,19.46 -8.23,4.87 -17.51,7.3 -27.88,7.3 -29.95,0 -44.94,-10.22 -44.94,-30.61l0 -109.51c0,-22.06 14.99,-33.09 44.94,-33.09 26.83,0 40.23,10.06 40.23,30.17l0 30.89z"/>
 </g>
</svg>
