<?xml version="1.0" encoding="UTF-8"?>
<!DOCTYPE svg PUBLIC "-//W3C//DTD SVG 1.1//EN" "http://www.w3.org/Graphics/SVG/1.1/DTD/svg11.dtd">
<!-- Creator: CorelDRAW -->
<svg xmlns="http://www.w3.org/2000/svg" xml:space="preserve" width="5.4186mm" height="5.4186mm" version="1.1" style="shape-rendering:geometricPrecision; text-rendering:geometricPrecision; image-rendering:optimizeQuality; fill-rule:evenodd; clip-rule:evenodd"
viewBox="0 0 541.86 541.86"
 xmlns:xlink="http://www.w3.org/1999/xlink"
 xmlns:xodm="http://www.corel.com/coreldraw/odm/2003">
 <defs>
  <style type="text/css">
   <![CDATA[
    .fil1 {fill:black}
    .fil0 {fill:#0040FF}
    .fil2 {fill:black;fill-rule:nonzero}
   ]]>
  </style>
 </defs>
 <g id="Layer_x0020_1">
  <metadata id="CorelCorpID_0Corel-Layer"/>
  <g>
   <path class="fil0" d="M270.93 0c149.63,0 270.93,121.3 270.93,270.93 0,149.63 -121.3,270.93 -270.93,270.93 -149.63,0 -270.93,-121.3 -270.93,-270.93 0,-149.63 121.3,-270.93 270.93,-270.93z"/>
   <path id="_1" class="fil1" d="M270.93 0c149.63,0 270.93,121.3 270.93,270.93 0,149.63 -121.3,270.93 -270.93,270.93 -149.63,0 -270.93,-121.3 -270.93,-270.93 0,-149.63 121.3,-270.93 270.93,-270.93zm179.61 91.32c-45.96,-45.96 -109.47,-74.39 -179.61,-74.39 -70.14,0 -133.65,28.43 -179.61,74.39 -45.96,45.96 -74.39,109.47 -74.39,179.61 0,70.14 28.43,133.65 74.39,179.61 45.96,45.96 109.47,74.39 179.61,74.39 70.14,0 133.65,-28.43 179.61,-74.39 45.96,-45.96 74.39,-109.47 74.39,-179.61 0,-70.14 -28.43,-133.65 -74.39,-179.61z"/>
  </g>
  <path class="fil2" d="M50.8 293.27l34.57 0 0 39.68c0,3.95 2.39,5.92 7.16,5.92 4.61,0 6.92,-1.97 6.92,-5.88l0 -20.46c0,-6.25 -4.2,-13.62 -12.55,-22.06 -16.18,-15.64 -26.22,-26.17 -30.17,-31.52 -3.95,-5.39 -5.93,-11.28 -5.93,-17.74l0 -19.39c0,-22.39 14.69,-33.58 44.04,-33.58 26.3,0 39.43,10.21 39.43,30.62l0 29.92 -34.57 0 0 -31.69c0,-3.41 -1.94,-5.14 -5.81,-5.14 -4.53,0 -6.79,3.25 -6.79,9.75l0.74 11.24c0,6.42 4.28,13.87 12.84,22.39 15.89,15.18 26.01,25.76 30.34,31.77 4.32,6.05 6.46,12.84 6.46,20.49l0 22.02c0,22.97 -14.7,34.45 -44.12,34.45 -28.36,0 -42.56,-10.45 -42.56,-31.36l0 -39.43z"/>
  <polygon class="fil2" points="190.32,363.41 152.29,363.41 152.29,190.55 190.32,190.55 "/>
  <path class="fil2" d="M301.47 362.58l-18.15 0 -4.94 -9.51c-8.36,7.33 -17.16,10.99 -26.47,10.99 -9.05,0 -16.95,-2.34 -23.74,-7.04 -6.79,-4.69 -10.17,-12.18 -10.17,-22.47l0 -112.73c0,-22.39 14.28,-33.58 42.8,-33.58 27.13,0 40.67,10.21 40.67,30.62l0 32.1 -34.57 0 0 -34.82c0,-2.79 -1.82,-4.19 -5.44,-4.19 -3.62,0 -5.43,1.4 -5.43,4.19l0 119.52c0,2.8 1.81,4.2 5.43,4.2 3.62,0 5.44,-1.4 5.44,-4.24l0 -32.31 -7.41 0 0 -26.42 41.98 0 0 85.69z"/>
  <polygon class="fil2" points="389.84,363.41 315.51,363.41 315.51,190.55 389.34,190.55 389.34,212.78 353.54,212.78 353.54,259.45 385.84,259.45 385.84,280.44 353.54,280.44 353.54,341.19 389.84,341.19 "/>
  <path class="fil2" d="M408.52 363.41l0 -172.86 44.78 0c10.7,0 20,2.43 27.86,7.29 7.9,4.85 11.86,12.63 11.86,23.29l0 24c0,12.14 -7.41,20.66 -22.19,25.64 15.6,3.87 23.38,12.18 23.38,24.98l0 33.54c0,11.4 -3.7,19.96 -11.15,25.6 -7.45,5.68 -16.34,8.52 -26.63,8.52l-47.91 0zm48.65 -112.15l0 -29.43c0,-6.05 -3.54,-9.05 -10.62,-9.05l0 47.66c7.08,0 10.62,-3.05 10.62,-9.18zm0 80.75l0 -43.75c0,-6.05 -3.54,-9.06 -10.62,-9.06l0 61.99c7.08,0 10.62,-3.05 10.62,-9.18z"/>
 </g>
</svg>
